<?xml version="1.0" encoding="UTF-8"?>
<svg version="1.1" xmlns="http://www.w3.org/2000/svg" width="512" height="512">
<path d="M0 0 C168.96 0 337.92 0 512 0 C512 168.96 512 337.92 512 512 C343.04 512 174.08 512 0 512 C0 343.04 0 174.08 0 0 Z " fill="#4BC889" transform="translate(0,0)"/>
<path d="M0 0 C4.4089616 0.40853419 6.48677445 3.37753879 9.21246338 6.51786804 C13.92279769 11.77569364 18.75572937 16.87129988 23.74505615 21.86531067 C24.43989813 22.56140076 25.13474011 23.25749085 25.85063791 23.97467458 C28.09867589 26.22310857 30.3496031 28.46862585 32.60058594 30.71411133 C34.23801824 32.35126092 35.87522912 33.98863201 37.51223755 35.62620544 C41.91824206 40.03249466 46.3273038 44.4357128 50.7369566 48.83835053 C55.35917911 53.4542848 59.97853439 58.07308669 64.59820557 62.6915741 C72.33981498 70.4306037 80.0833298 78.16772309 87.828125 85.90356445 C95.79871054 93.8649448 103.76822558 101.82739428 111.73632812 109.79125977 C112.22901671 110.28368563 112.72170529 110.77611149 113.22932383 111.28345934 C115.70144933 113.75427963 118.17355407 116.2251207 120.64564848 118.69597208 C141.09388107 139.13386929 161.54577382 159.56810124 182 180 C181.21059525 180.78907745 180.42119049 181.57815491 179.60786438 182.3911438 C177.6429338 184.35682168 175.68351165 186.32724314 173.73046875 188.3046875 C162.70997311 199.42403552 162.70997311 199.42403552 156.72265625 204.49609375 C154.89569493 206.09105998 153.19940713 207.77017842 151.5 209.5 C147.008271 214.06384391 142.33530498 218.44313001 137 222 C136.51664185 221.51442123 136.03328369 221.02884247 135.53527832 220.52854919 C130.47647054 215.44751395 125.41406378 210.37008467 120.34960938 205.29467773 C118.4629887 203.4036151 116.57785518 201.51110381 114.69335938 199.61791992 C111.97505715 196.88740545 109.25346677 194.16020492 106.53125 191.43359375 C105.69758911 190.59477158 104.86392822 189.7559494 104.00500488 188.89170837 C100.49729615 185.38366856 96.99028284 181.93696037 93.21484375 178.71704102 C87.81647785 174.07073147 82.85775564 168.9683718 77.84251404 163.91767883 C75.99384125 162.05607968 74.14192039 160.19776496 72.28918457 158.34020996 C67.69119592 153.72895087 63.09870561 149.11222852 58.50604248 144.4956665 C54.61364425 140.58344018 50.71913721 136.6733357 46.82188416 132.76594543 C45.00974195 130.94738709 43.20067157 129.12581204 41.39172363 127.30407715 C34.87782955 120.72775019 34.87782955 120.72775019 28.01806641 114.51806641 C22.58247981 109.88040955 17.62763942 104.73753309 12.59618759 99.67135239 C10.70605065 97.7683038 8.8126779 95.86852653 6.91848755 93.96951294 C2.90115527 89.94082898 -1.11221213 85.90820979 -5.125 81.875 C-9.78604702 77.19027729 -14.44874544 72.50722284 -19.11568832 67.82837296 C-20.97333547 65.96428409 -22.82792554 64.09719082 -24.68240356 62.22994995 C-25.8286471 61.08007171 -26.9750325 59.93033485 -28.12158203 58.78076172 C-28.62978485 58.26739258 -29.13798767 57.75402344 -29.66159058 57.22509766 C-32.95716221 53.92904672 -36.38706341 50.93512096 -40 48 C-39.51731584 43.74634586 -36.84485104 41.36992885 -34 38.4375 C-30.36252943 34.58803503 -26.87184746 30.70373848 -23.5625 26.5625 C-19.21355679 21.15950413 -14.5494078 16.10600504 -9.8203125 11.0390625 C-6.45969163 7.43501637 -3.20867595 3.73968923 0 0 Z " fill="#FEFEFE" transform="translate(186,75)"/>
<path d="M0 0 C0.78842285 0.78914795 1.5768457 1.5782959 2.38916016 2.39135742 C3.84498615 3.8459582 5.30372931 5.29770825 6.7734375 6.73828125 C10.33099894 10.23510384 13.66220779 13.85524787 16.91796875 17.6328125 C19.56045727 20.63721784 22.27819734 23.56753928 25 26.5 C28.76570831 30.55998526 32.47220602 34.65412069 36.09375 38.84375 C38.68284958 41.77240362 41.34194681 44.63398177 44 47.5 C47.7655356 51.56014963 51.47220026 55.65411402 55.09375 59.84375 C57.68285047 62.77240463 60.34197787 65.63395168 63 68.5 C66.79771411 72.59566533 70.54527821 76.72016041 74.19921875 80.9453125 C78.06540488 85.35662249 82.04371973 89.66958458 86 94 C84.40584497 97.91209308 81.86106668 100.37218086 78.875 103.3125 C77.96492187 104.21613281 77.05484375 105.11976563 76.1171875 106.05078125 C73.90031969 108.18841554 71.61024277 110.2134962 69.27392578 112.21948242 C65.17460056 115.79663956 61.32066957 119.5667886 57.5 123.4375 C56.82001953 124.12126709 56.14003906 124.80503418 55.43945312 125.50952148 C53.29049074 127.67057055 51.14482721 129.83484726 49 132 C46.16966163 134.85716017 43.33587327 137.71083454 40.5 140.5625 C39.54963867 141.52530884 39.54963867 141.52530884 38.58007812 142.50756836 C34.84741592 146.26030391 30.98752122 149.78352627 26.98242188 153.24243164 C23.68209235 156.16842576 20.59733298 159.2995992 17.5 162.4375 C16.82001953 163.12126709 16.14003906 163.80503418 15.43945312 164.50952148 C13.29049074 166.67057055 11.14482721 168.83484726 9 171 C6.16966163 173.85716017 3.33587327 176.71083454 0.5 179.5625 C-0.45036133 180.52530884 -0.45036133 180.52530884 -1.41992188 181.50756836 C-5.21154428 185.31958118 -9.11989435 188.92916563 -13.20239258 192.42848206 C-15.92599808 194.80953304 -18.46640809 197.35751838 -21 199.9375 C-21.73283203 200.67709961 -21.73283203 200.67709961 -22.48046875 201.43164062 C-23.65603525 202.61873229 -24.82838826 203.80900498 -26 205 C-34.74452064 196.3526407 -43.05966214 187.33938767 -50.73828125 177.73046875 C-54.15993879 173.59965938 -57.83543286 169.72096351 -61.51953125 165.82421875 C-64.00940651 162.98928991 -65.98564536 160.17883004 -68 157 C-52.29627034 142.20641941 -52.29627034 142.20641941 -44.48828125 135.23828125 C-41.46622175 132.51985096 -38.48237587 129.76181016 -35.5 127 C-30.90640052 122.74730832 -26.27733581 118.53879327 -21.61328125 114.36328125 C-17.89275583 110.99868053 -14.21812939 107.58469496 -10.55273438 104.16015625 C-7.46987491 101.29558621 -4.32453107 98.58711198 -1 96 C-2.50684968 92.46760977 -4.55366612 90.2037834 -7.26611328 87.50683594 C-8.14687531 86.62622498 -9.02763733 85.74561401 -9.93508911 84.83831787 C-10.89672351 83.88689569 -11.8584672 82.93558397 -12.8203125 81.984375 C-13.80438107 81.00403871 -14.78800742 80.02325832 -15.77120972 79.04205322 C-18.35442714 76.46645533 -20.94359512 73.89692143 -23.53405762 71.32861328 C-26.1786762 68.70448933 -28.8176101 66.07466229 -31.45703125 63.4453125 C-36.63248072 58.2912833 -41.81423122 53.14364843 -47 48 C-42.12275563 42.1202495 -36.86113122 36.73119183 -31.4453125 31.34765625 C-30.54376434 30.44752304 -29.64221619 29.54738983 -28.71334839 28.61997986 C-26.33801783 26.24927177 -23.96054595 23.88075485 -21.58197021 21.51330566 C-19.14655283 19.08819272 -16.71403088 16.66017915 -14.28125 14.23242188 C-9.52347231 9.48562872 -4.7628462 4.74170719 0 0 Z " fill="#FEFEFE" transform="translate(212,233)"/>
</svg>
