<?xml version="1.0" encoding="UTF-8"?>
<svg version="1.1" xmlns="http://www.w3.org/2000/svg" width="820" height="223">
<path d="M0 0 C3.53977547 1.51188038 5.8306471 3.57256763 8.54988098 6.27572632 C9.45713928 7.17300949 10.36439758 8.07029266 11.29914856 8.99476624 C12.29695661 9.99167856 13.29464866 10.988707 14.29223633 11.98583984 C15.34823171 13.03421248 16.40462818 14.08218125 17.46139526 15.129776 C20.32756765 17.97401682 23.18715236 20.82479178 26.04492021 23.6774745 C27.82957873 25.45848999 29.61552851 27.23820018 31.40192223 29.01747513 C37.63068499 35.22175481 43.85371651 41.43172403 50.07202148 47.64648438 C55.87472859 53.44554992 61.69045449 59.23133314 67.51221067 65.01126897 C72.50706833 69.97149542 77.4923222 74.94123795 82.47024363 79.91846049 C85.44495783 82.89237987 88.42355688 85.86214553 91.41202736 88.82224655 C94.21951006 91.60366918 97.01491234 94.39667797 99.80132675 97.19920158 C100.82779811 98.22749667 101.85858641 99.25150248 102.8938694 100.27092552 C104.3023972 101.65917512 105.69423428 103.06429977 107.08503723 104.4703064 C107.86981854 105.25307638 108.65459986 106.03584637 109.46316242 106.84233665 C111 109 111 109 110.89124584 111.11030006 C109.41960932 114.23059675 106.98374728 116.48408553 104.57421875 118.89453125 C104.03021927 119.44614426 103.48621979 119.99775726 102.92573547 120.56608582 C101.77541527 121.72719468 100.62111163 122.8843688 99.46313477 124.0378418 C97.69018394 125.80981753 95.93964091 127.60205648 94.18945312 129.39648438 C93.06901095 130.52213143 91.94730774 131.64652499 90.82421875 132.76953125 C90.30115646 133.3089888 89.77809418 133.84844635 89.23918152 134.4042511 C87.7331543 135.88208008 87.7331543 135.88208008 85 138 C81.11013829 137.77119558 79.1641607 135.5480492 76.49481201 132.89595032 C75.59741302 132.01134628 74.70001404 131.12674225 73.77542114 130.21533203 C72.78859484 129.2274572 71.80193665 128.23941442 70.81542969 127.2512207 C69.77111579 126.21588328 68.72618863 125.18116411 67.68069458 124.14701843 C64.84308126 121.33591808 62.01528209 118.51513989 59.18994045 115.69171166 C56.83133253 113.33595189 54.46864673 110.98430178 52.10615277 108.63244027 C46.53353415 103.08425174 40.96950558 97.52754602 35.41015625 91.96606445 C29.67294899 86.22705402 23.91921531 80.50499268 18.15747905 74.79061824 C13.21254368 69.88488949 8.27922329 64.96768406 3.35481191 60.04135388 C0.41293971 57.09871624 -2.53341763 54.16093949 -5.49149323 51.2345829 C-8.27258475 48.4825029 -11.03894868 45.71643112 -13.79462051 42.93890572 C-14.80851465 41.92187018 -15.82756017 40.90994047 -16.85203934 39.90356827 C-18.2494338 38.52928602 -19.62666511 37.13459061 -21.00274658 35.7389679 C-22.16747435 34.57669158 -22.16747435 34.57669158 -23.35573196 33.39093494 C-25.44672753 30.3504122 -25.49268823 28.62044553 -25 25 C-23.23358131 22.70929321 -21.61003977 20.90638075 -19.53125 18.9453125 C-18.97634888 18.39890106 -18.42144775 17.85248962 -17.84973145 17.28952026 C-16.08010377 15.553388 -14.29074901 13.83931167 -12.5 12.125 C-11.29420929 10.94931359 -10.08976515 9.77224443 -8.88671875 8.59375 C-5.93984458 5.7129086 -2.97510304 2.85166792 0 0 Z " fill="#66B9A0" transform="translate(25,1)"/>
<path d="M0 0 C6.52878733 5.37193906 12.44579862 11.31785074 18.40234375 17.3046875 C19.49071139 18.39492365 20.57930257 19.48493669 21.66810608 20.57473755 C24.51269535 23.42311794 27.35426681 26.27449004 30.19519043 29.12652588 C33.10289665 32.04452 36.01348824 34.95963304 38.92382812 37.875 C44.61869081 43.58053984 50.31036412 49.28924794 56 55 C54.72829615 57.78382043 53.41939717 59.82934578 51.25387573 61.9866333 C50.69579224 62.54746613 50.13770874 63.10829895 49.56271362 63.68612671 C48.95275543 64.28889435 48.34279724 64.89166199 47.71435547 65.51269531 C47.07032776 66.15701508 46.42630005 66.80133484 45.76275635 67.46517944 C43.63560693 69.59093698 41.50146388 71.70952508 39.3671875 73.828125 C37.88987407 75.30170781 36.41300196 76.77573318 34.93655396 78.25018311 C31.05129631 82.12780821 27.16006971 85.99938941 23.26757812 89.86975098 C19.29586322 93.82099939 15.329811 97.77792261 11.36328125 101.734375 C3.5810588 109.49515421 -4.20747999 117.24956148 -12 125 C-17.68881675 122.34121756 -21.72307401 117.72515069 -26.12841797 113.35205078 C-27.74495681 111.75498244 -29.38155475 110.1805029 -31.01953125 108.60546875 C-32.05079151 107.58726496 -33.08078381 106.56777502 -34.109375 105.546875 C-35.04749023 104.62745117 -35.98560547 103.70802734 -36.95214844 102.76074219 C-39 100 -39 100 -39.81152344 97.19580078 C-38.48053215 91.95432187 -34.72600735 88.99391294 -30.90625 85.3203125 C-30.08499634 84.50754852 -29.26374268 83.69478455 -28.41760254 82.85739136 C-25.79214584 80.26551202 -23.14659956 77.69526919 -20.5 75.125 C-18.71608432 73.37117758 -16.93351471 71.61598486 -15.15234375 69.859375 C-10.78372228 65.55689603 -6.39842259 61.27199708 -2 57 C-3.77856421 53.15527449 -6.21756537 50.60325417 -9.26171875 47.71875 C-10.30835857 46.70225094 -11.35457 45.68531062 -12.40039062 44.66796875 C-14.0481425 43.07616896 -15.69947693 41.48859524 -17.35864258 39.90869141 C-18.9624277 38.37723431 -20.55032074 36.8306825 -22.13671875 35.28125 C-22.8896949 34.57639465 -22.8896949 34.57639465 -23.65788269 33.8572998 C-25.03393555 32.50195312 -25.03393555 32.50195312 -27 30 C-26.49044661 25.43450867 -23.35581149 22.97654394 -20.21484375 19.921875 C-19.63916153 19.35043762 -19.06347931 18.77900024 -18.47035217 18.19024658 C-16.63299681 16.36966198 -14.78547868 14.55979432 -12.9375 12.75 C-11.68876862 11.51631747 -10.44071331 10.28195022 -9.19335938 9.046875 C-6.1366898 6.02325345 -3.07086474 3.00920079 0 0 Z " fill="#66B9A0" transform="translate(39,97)"/>
<path d="M0 0 C28.38 0 56.76 0 86 0 C86 6.93 86 13.86 86 21 C85 22 85 22 82.56394958 22.12025452 C81.48251175 22.11803391 80.40107391 22.11581329 79.28686523 22.11352539 C78.0656749 22.11344986 76.84448456 22.11337433 75.58628845 22.11329651 C74.24372314 22.10818911 72.90115825 22.10297311 71.55859375 22.09765625 C70.19238842 22.09579199 68.82618243 22.09436813 67.4599762 22.09336853 C63.85798305 22.08954394 60.25603 22.07971417 56.65405273 22.06866455 C52.98096255 22.05844916 49.30786591 22.05387064 45.63476562 22.04882812 C38.42315666 22.03809184 31.21158905 22.02049553 24 22 C24 30.25 24 38.5 24 47 C43.14 47 62.28 47 82 47 C82 54.26 82 61.52 82 69 C62.86 69 43.72 69 24 69 C24 84.51 24 100.02 24 116 C16.08 116 8.16 116 0 116 C0 77.72 0 39.44 0 0 Z " fill="#000000" transform="translate(176,55)"/>
<path d="M0 0 C7.59 0 15.18 0 23 0 C23 22.11 23 44.22 23 67 C29.79614409 66.73723999 29.79614409 66.73723999 32.73828125 63.296875 C33.61356194 62.12726548 34.47085 60.94403852 35.3125 59.75 C35.79066162 59.13044434 36.26882324 58.51088867 36.76147461 57.87255859 C39.1442099 54.75482076 41.23043602 51.67583346 43.015625 48.1796875 C45.13220896 44.34341133 47.0040795 41.06169945 51 39 C59.54480446 37.40932375 68.39742312 38.2034651 77 39 C76.22417064 44.10898801 73.8951475 46.8826803 70.5 50.625 C69.40259303 51.86756056 68.30624942 53.11106102 67.2109375 54.35546875 C66.66663086 54.9695459 66.12232422 55.58362305 65.56152344 56.21630859 C63.35158049 58.74067432 61.23759845 61.33100054 59.125 63.9375 C55.81263781 68.0161099 52.44108739 72.02951455 49 76 C50.6023165 81.27515886 53.98699165 85.0808821 57.375 89.3125 C58.63619396 90.91605563 59.89659448 92.52023558 61.15625 94.125 C63.04729103 96.52413892 64.93900079 98.922743 66.83203125 101.3203125 C68.52518548 103.47523606 70.20176878 105.64209027 71.875 107.8125 C72.39239746 108.46323486 72.90979492 109.11396973 73.44287109 109.78442383 C76.22262387 113.41468375 77.26381773 115.4672635 77 120 C70.6812745 120.46251932 64.38303516 120.72203507 58.046875 120.58984375 C56.48211426 120.56071899 56.48211426 120.56071899 54.88574219 120.53100586 C51.37305152 119.88463511 49.78559164 118.66089397 47.25 116.1875 C46.1288541 114.14530774 45.05306772 112.07811591 44 110 C42.34175945 107.5160817 40.61772966 105.08485124 38.89160156 102.64770508 C37.12246337 100.14725068 35.37983075 97.63235813 33.66015625 95.09765625 C33.17168213 94.38101807 32.68320801 93.66437988 32.17993164 92.92602539 C31 91 31 91 30 88 C27.69 88 25.38 88 23 88 C23 98.56 23 109.12 23 120 C15.41 120 7.82 120 0 120 C0 80.4 0 40.8 0 0 Z " fill="#000000" transform="translate(743,51)"/>
<path d="M0 0 C3.125 2.25 3.125 2.25 5 4 C5.33 2.02 5.66 0.04 6 -2 C13.26 -2 20.52 -2 28 -2 C28 24.73 28 51.46 28 79 C20.74 79 13.48 79 6 79 C5.67 77.02 5.34 75.04 5 73 C4.443125 73.40992188 3.88625 73.81984375 3.3125 74.2421875 C-5.65591201 80.57461355 -13.8612947 82.36794623 -24.765625 80.53515625 C-35.502377 78.00092289 -43.69114939 72.04406035 -50 63 C-56.53029345 50.26349714 -58.34958848 36.30087111 -53.98046875 22.49609375 C-49.59532783 11.33232861 -42.74080011 2.94221897 -31.6875 -2.04296875 C-21.19884285 -5.71744897 -9.75845417 -5.46030706 0 0 Z M-28.3125 23.3125 C-32.64318528 30.20951731 -34.16433539 35.83845673 -33 44 C-30.9575668 50.66627504 -27.99339823 54.81100213 -21.8671875 58.16015625 C-16.6188785 60.52079733 -11.87498989 60.93502711 -6.4296875 59.1640625 C-0.2621913 56.42090747 3.33123619 53.24366603 6 47 C8.02349534 40.37404468 7.81684277 34.00317315 4.9375 27.6875 C1.86463438 22.11957255 -1.90047515 19.03317495 -8 17 C-16.16732449 16.11508562 -22.41500483 17.41500483 -28.3125 23.3125 Z " fill="#000000" transform="translate(608,92)"/>
<path d="M0 0 C31.35 0 62.7 0 95 0 C95 7.26 95 14.52 95 22 C83.45 22 71.9 22 60 22 C60 53.02 60 84.04 60 116 C52.08 116 44.16 116 36 116 C36 84.98 36 53.96 36 22 C24.12 22 12.24 22 0 22 C0 14.74 0 7.48 0 0 Z " fill="#000000" transform="translate(391,55)"/>
<path d="M0 0 C7.59 0 15.18 0 23 0 C23 7.92 23 15.84 23 24 C32.57 24 42.14 24 52 24 C52 30.6 52 37.2 52 44 C42.43 44 32.86 44 23 44 C23.05111626 48.89438148 23.1141297 53.78561694 23.20751953 58.67895508 C23.23568649 60.34226263 23.25692233 62.00570296 23.27099609 63.66918945 C23.29248592 66.06530525 23.33916288 68.45983184 23.390625 70.85546875 C23.39185364 71.5952446 23.39308228 72.33502045 23.39434814 73.09721375 C23.53216942 77.9922272 24.49622442 80.56916852 28 84 C31.89475454 85.64428353 35.71713609 85.40043151 39.703125 84.15625 C41.4314971 83.44872926 43.14459807 82.70213265 44.8359375 81.91015625 C47 81 47 81 50 81 C51.20216334 83.41032251 52.38674978 85.82683479 53.5625 88.25 C53.90474609 88.93191406 54.24699219 89.61382812 54.59960938 90.31640625 C57.07226655 95.46153129 57.07226655 95.46153129 56.71264648 98.14111328 C55.38513113 101.6038409 51.93304467 102.4259342 48.73828125 103.89453125 C38.57842837 107.99615517 26.70685652 108.74948216 16.28125 105.09375 C8.42758756 101.32829541 3.90952036 95.07922607 1 87 C-0.03952464 82.06364028 -0.13091582 77.33611568 -0.09765625 72.3203125 C-0.0962413 71.50754852 -0.09482635 70.69478455 -0.09336853 69.85739136 C-0.08780335 67.27988899 -0.0752574 64.7024758 -0.0625 62.125 C-0.0574805 60.36979293 -0.05291838 58.61458448 -0.04882812 56.859375 C-0.03784534 52.57288268 -0.02060492 48.28645643 0 44 C-4.95 44 -9.9 44 -15 44 C-15 37.4 -15 30.8 -15 24 C-10.05 24 -5.1 24 0 24 C0 16.08 0 8.16 0 0 Z " fill="#000000" transform="translate(330,66)"/>
<path d="M0 0 C1.16266343 0.98038145 2.31092589 1.97835191 3.4375 3 C4.7059375 4.051875 4.7059375 4.051875 6 5.125 C7.4375 7 7.4375 7 7.359375 8.828125 C6.00538583 12.0180317 3.82216492 13.48870249 1.125 15.625 C0.15949219 16.40101562 -0.80601562 17.17703125 -1.80078125 17.9765625 C-4.0291929 19.60926014 -6.04893706 20.88949476 -8.5625 22 C-9.17738281 21.57847656 -9.79226563 21.15695313 -10.42578125 20.72265625 C-11.23402344 20.17480469 -12.04226563 19.62695312 -12.875 19.0625 C-13.67550781 18.51722656 -14.47601562 17.97195312 -15.30078125 17.41015625 C-19.89403878 14.54631175 -24.30728912 14.41230219 -29.5625 15 C-35.57505317 16.68265748 -38.62156674 19.74499583 -41.65234375 25.09765625 C-44.48400262 31.01618788 -44.66607046 37.58463971 -42.65625 43.8046875 C-39.8839528 49.7935603 -36.93387819 53.3078536 -30.625 55.75 C-22.79284051 56.69935267 -16.91006917 55.44093585 -10.5625 50.8125 C-9.9025 50.214375 -9.2425 49.61625 -8.5625 49 C-4.35296213 50.7296616 -1.21106424 53.68206745 2.1875 56.625 C2.78949219 57.140625 3.39148438 57.65625 4.01171875 58.1875 C5.49010866 59.45469135 6.96423171 60.72685775 8.4375 62 C0.93258751 71.3935969 -6.6332064 75.97256315 -18.5625 78 C-32.37216036 79.04223852 -43.54359312 75.66040485 -54.75 67.75 C-63.59940303 59.09725037 -67.63002622 48.20886181 -67.8125 35.9375 C-67.65888393 23.55045889 -64.27642664 13.45640794 -55.90234375 4.15625 C-41.26204849 -9.41111582 -16.35376683 -11.88816261 0 0 Z " fill="#000000" transform="translate(720.5625,95)"/>
<path d="M0 0 C-0.99 7.26 -1.98 14.52 -3 22 C-5.289375 21.608125 -7.57875 21.21625 -9.9375 20.8125 C-16.15949331 19.90058658 -21.47471712 19.63516481 -27 23 C-31.02149719 27.02149719 -32.10701767 30.35514508 -32.20532227 35.93041992 C-32.22526749 36.93123093 -32.24521271 37.93204193 -32.26576233 38.96318054 C-32.28247482 40.04138565 -32.29918732 41.11959076 -32.31640625 42.23046875 C-32.33718735 43.33602615 -32.35796844 44.44158356 -32.37937927 45.5806427 C-32.44482332 49.1161979 -32.50373603 52.65182806 -32.5625 56.1875 C-32.6056901 58.58269008 -32.64930454 60.97787255 -32.69335938 63.37304688 C-32.80129889 69.24862217 -32.90041108 75.12425344 -33 81 C-40.59 81 -48.18 81 -56 81 C-56 54.27 -56 27.54 -56 0 C-48.74 0 -41.48 0 -34 0 C-33.67 1.98 -33.34 3.96 -33 6 C-32.175 5.236875 -31.35 4.47375 -30.5 3.6875 C-21.79990162 -3.40146905 -10.23754656 -4.09501862 0 0 Z " fill="#000000" transform="translate(546,90)"/>
<path d="M0 0 C7.26 0 14.52 0 22 0 C22 26.73 22 53.46 22 81 C14.74 81 7.48 81 0 81 C0 54.27 0 27.54 0 0 Z " fill="#000000" transform="translate(279,90)"/>
<path d="M0 0 C4.03843343 2.60254599 6.29289779 5.25369336 7.8125 9.8125 C8.20864654 15.06144167 7.67807317 18.36592094 4.8125 22.8125 C1.54549849 26.26618731 -1.35374205 27.53534371 -6.1328125 27.9140625 C-10.73938265 27.68636131 -14.15480678 25.70931254 -17.5625 22.75 C-20.79941065 18.89060654 -20.52245736 15.46888005 -20.46484375 10.578125 C-20.07348046 6.67551637 -18.87370197 4.64008102 -16.1875 1.8125 C-10.79831585 -1.78028944 -6.06769354 -2.26051328 0 0 Z " fill="#000000" transform="translate(296.1875,51.1875)"/>
</svg>
